<?xml version="1.0" encoding="UTF-8" standalone="no"?>
<!-- Created with Inkscape (http://www.inkscape.org/) -->

<svg
   width="223.65472"
   height="75.874847"
   viewBox="0 0 59.17539 20.075238"
   version="1.1"
   id="svg5"
   xml:space="preserve"
   inkscape:export-filename="ELKS-Logo.png"
   inkscape:export-xdpi="96"
   inkscape:export-ydpi="96"
   xmlns:inkscape="http://www.inkscape.org/namespaces/inkscape"
   xmlns:sodipodi="http://sodipodi.sourceforge.net/DTD/sodipodi-0.dtd"
   xmlns="http://www.w3.org/2000/svg"
   xmlns:svg="http://www.w3.org/2000/svg"><sodipodi:namedview
     id="namedview7"
     pagecolor="#ffffff"
     bordercolor="#000000"
     borderopacity="0.25"
     inkscape:showpageshadow="2"
     inkscape:pageopacity="0.0"
     inkscape:pagecheckerboard="true"
     inkscape:deskcolor="#d1d1d1"
     inkscape:document-units="mm"
     showgrid="false" /><defs
     id="defs2"><rect
       x="31.132023"
       y="536.68481"
       width="732.82703"
       height="100.53855"
       id="rect293" /><rect
       x="21.251347"
       y="319.04495"
       width="825.40454"
       height="421.44952"
       id="rect233" /></defs><g
     inkscape:label="Layer 1"
     inkscape:groupmode="layer"
     id="layer1"
     transform="translate(-18.549831,-95.697432)"><rect
       style="fill:#ffffff;fill-opacity:1;stroke-width:0.223817"
       id="rect15518"
       width="59.175274"
       height="20.072977"
       x="18.549913"
       y="95.698135" /><g
       aria-label="The"
       id="text289"
       style="font-size:4.07034px;font-family:'Charter Bd BT';-inkscape-font-specification:'Charter Bd BT';fill:#0204b4;stroke-width:0.0953984"><path
         d="m 19.253761,95.961766 h 2.26373 l -0.133161,0.715489 h -0.274271 l 0.008,-0.439231 -0.05565,-0.05366 h -0.461093 l -0.419357,2.227954 0.04571,0.05565 0.276258,0.02584 v 0.198747 H 19.33132 v -0.198747 l 0.282221,-0.02186 0.05565,-0.0636 0.411406,-2.223979 h -0.459106 l -0.07354,0.05366 -0.147073,0.439231 H 19.11667 Z"
         id="path15459" /><path
         d="m 22.324404,95.697432 h 0.182847 q -0.03577,0.149061 -0.07354,0.319983 -0.03578,0.170922 -0.07751,0.379607 l -0.139123,0.687665 q 0.246447,-0.202722 0.441219,-0.302096 0.196759,-0.101361 0.34582,-0.101361 0.176885,0 0.282221,0.107324 0.107323,0.105336 0.107323,0.284208 0,0.05764 -0.01193,0.139123 -0.0099,0.0795 -0.0318,0.190797 l -0.123224,0.560467 q -0.02385,0.111298 -0.03379,0.182847 -0.0099,0.06956 -0.0099,0.115274 0,0.09142 0.0477,0.14906 0.04969,0.05764 0.123224,0.05764 0.05764,0 0.123223,-0.0099 0.06757,-0.01192 0.145085,-0.03379 v 0.151048 q -0.196759,0.07155 -0.349795,0.107323 -0.151047,0.03379 -0.264333,0.03379 -0.162973,0 -0.246447,-0.07155 -0.08347,-0.07354 -0.08347,-0.216634 0,-0.03975 0.0079,-0.09341 0.008,-0.05366 0.02385,-0.123223 l 0.147073,-0.67574 q 0.01789,-0.08546 0.02584,-0.155023 0.0099,-0.06956 0.0099,-0.117261 0,-0.111298 -0.05167,-0.170922 -0.04969,-0.06161 -0.143098,-0.06161 -0.09341,0 -0.228559,0.06956 -0.13316,0.06956 -0.288183,0.200734 l -0.252409,1.39123 H 21.42403 l 0.532643,-2.653274 -0.35377,-0.04571 -0.004,-0.143098 z"
         id="path15461" /><path
         d="m 24.373486,97.597454 q 0.316008,-0.01391 0.524692,-0.15701 0.210672,-0.143098 0.210672,-0.335882 0,-0.0954 -0.05565,-0.151048 -0.05366,-0.05565 -0.145085,-0.05565 -0.166948,0 -0.312033,0.186822 -0.143098,0.184835 -0.222597,0.512767 z m -0.03379,0.170923 q 0,0.004 -0.002,0.01391 -0.006,0.07354 -0.006,0.109311 0,0.254396 0.113286,0.393519 0.113286,0.139123 0.32197,0.139123 0.135148,0 0.296133,-0.07155 0.162973,-0.07354 0.341845,-0.214647 v 0.248434 q -0.218622,0.168935 -0.435256,0.256384 -0.214647,0.08546 -0.407431,0.08546 -0.33787,0 -0.528668,-0.204709 -0.190797,-0.20471 -0.190797,-0.568417 0,-0.290171 0.117261,-0.544567 0.119248,-0.254396 0.341845,-0.443206 0.155023,-0.131173 0.341845,-0.202722 0.186822,-0.07155 0.371657,-0.07155 0.234521,0 0.36967,0.119248 0.135148,0.119249 0.135148,0.325946 0,0.29812 -0.280234,0.467055 -0.278246,0.166948 -0.775113,0.166948 -0.01987,0 -0.06161,-0.002 -0.04174,-0.002 -0.0636,-0.002 z"
         id="path15463" /></g><g
       aria-label="ELKS"
       transform="matrix(0.09539848,0,0,0.09539848,16.93048,64.566157)"
       id="text231"
       style="font-size:194.667px;white-space:pre;shape-inside:url(#rect233)"><path
         d="m 37.791045,365.56581 h 96.382985 l -5.89324,30.32167 h -12.45185 l -0.1901,-16.53909 -2.09115,-2.94662 H 76.952571 l -8.744807,46.7657 h 23.668011 l 2.946619,-2.75651 4.847665,-14.35289 h 11.121111 l -8.5547,45.33992 h -10.5508 l 0.380209,-14.63805 -2.471358,-2.66146 H 66.021563 l -9.69533,50.7579 h 43.914137 l 2.75652,-2.66146 7.41407,-20.91149 h 12.83206 l -6.3685,34.88417 H 16.974602 v -9.31512 l 12.641949,-1.23568 2.756515,-2.85157 19.675816,-103.60695 -1.805993,-3.13672 -12.451844,-0.95053 z"
         style="font-family:'Charter Bd BT';-inkscape-font-specification:'Charter Bd BT';fill:#0204b4"
         id="path15395" /><path
         d="m 150.1428,365.56581 h 54.27484 v 9.31512 l -12.26174,0.95052 -3.32683,2.56641 -19.77087,106.45852 h 35.16933 l 3.51693,-2.66146 7.60418,-24.33338 h 13.97269 l -7.31903,38.30606 h -92.48584 v -9.31512 l 12.07164,-1.23568 3.13672,-2.47136 19.58077,-104.74758 -1.90105,-2.75651 -12.26174,-0.76042 z"
         style="font-family:'Charter Bd BT';-inkscape-font-specification:'Charter Bd BT';fill:#0204b4"
         id="path15397" /><path
         d="m 253.0844,365.56581 h 54.27483 v 9.31512 l -12.83205,0.76042 -2.56641,2.75651 -9.69533,51.04306 h 5.89324 l 48.85686,-50.28264 -1.23568,-3.13672 -12.07164,-1.14063 v -9.31512 h 48.66675 v 9.31512 l -15.58857,1.80599 -45.53002,46.10034 24.90368,49.80738 q 4.1823,8.3646 8.55471,11.12112 4.3724,2.75651 12.54689,2.75651 h 4.08725 l -0.0951,9.50523 q -3.80209,0.28515 -10.07554,0.76041 -10.07554,0.76042 -13.02216,0.76042 -9.98048,0 -15.58857,-3.89714 -5.60808,-3.89714 -12.26174,-17.48961 l -17.67972,-36.97533 h -12.26174 l -7.98438,43.62898 2.09114,3.04168 12.07164,0.85547 v 9.50522 h -54.27483 v -9.50522 l 12.45184,-1.04558 2.94662,-2.85157 19.58076,-104.36737 -1.90104,-2.75651 -12.26174,-0.76042 z"
         style="font-family:'Charter Bd BT';-inkscape-font-specification:'Charter Bd BT';fill:#0204b4"
         id="path15399" /><path
         d="m 368.85802,487.42279 5.22787,-31.55734 H 387.013 l -0.19011,23.19275 1.33074,1.90104 q 4.46745,1.9961 8.83986,2.94662 4.46745,0.95052 8.83985,0.95052 12.16669,0 19.77087,-6.5586 7.69924,-6.55861 7.69924,-16.82425 0,-2.75652 -1.33074,-5.89324 -1.33073,-3.23178 -3.89714,-6.3685 -2.47136,-3.13672 -14.7331,-9.88543 -6.17839,-3.42189 -9.60027,-5.41798 -12.73701,-7.60418 -17.39457,-14.16279 -4.65756,-6.65366 -4.65756,-16.06383 0,-17.86982 13.97268,-29.18104 13.97268,-11.31122 36.30996,-11.31122 7.31903,0 15.11331,1.33074 7.88934,1.33073 16.15888,3.99219 l -5.03777,32.88808 h -11.69142 l 0.38021,-21.48181 -1.52084,-1.90105 q -3.04167,-1.71094 -6.46355,-2.47135 -3.32683,-0.85547 -7.12892,-0.85547 -11.50132,0 -19.20056,6.27344 -7.69923,6.1784 -7.69923,15.30342 0,10.45574 22.43233,23.19275 l 2.09115,1.14062 q 18.34509,10.64585 23.2878,17.29951 4.94272,6.65366 4.94272,16.44404 0,18.34509 -14.82815,30.79693 -14.7331,12.35679 -37.16543,12.35679 -9.88543,0 -19.1055,-2.47136 -9.12502,-2.56641 -17.67972,-7.60418 z"
         style="font-family:'Charter Bd BT';-inkscape-font-specification:'Charter Bd BT';fill:#0204b4"
         id="path15401" /></g><g
       aria-label="Embeddable Linux Kernel Subset"
       transform="matrix(0.09539848,0,0,0.09539848,16.237766,63.510891)"
       id="text291"
       style="font-size:41.3333px;line-height:0;font-family:'Charter Bd BT';-inkscape-font-specification:'Charter Bd BT';white-space:pre;shape-inside:url(#rect293)"><path
         d="m 34.644529,519.69207 h 20.464828 l -1.251302,6.43815 h -2.643878 l -0.04036,-3.51172 -0.44401,-0.62565 H 42.95963 l -1.856769,9.92968 h 5.025387 l 0.62565,-0.58529 1.029296,-3.04752 h 2.361327 l -1.816405,9.62695 h -2.240233 l 0.08073,-3.10807 -0.524739,-0.56511 H 40.63867 l -2.058593,10.77734 h 9.324212 l 0.585286,-0.56511 1.574218,-4.4401 H 52.7884 l -1.352213,7.4069 H 30.22461 v -1.97787 l 2.684243,-0.26236 0.585286,-0.60547 4.177731,-21.99868 -0.383463,-0.66602 -2.643878,-0.20182 z"
         style="fill:#0204b4"
         id="path15404" /><path
         d="m 63.505183,527.03842 h 1.614583 l -0.787109,4.05664 q 2.199868,-1.97787 4.238278,-3.00716 2.058592,-1.04948 3.733721,-1.04948 1.796222,0 2.785154,1.02929 1.009114,1.00912 1.089843,2.88607 2.159503,-1.87695 4.157549,-2.88607 1.998045,-1.02929 3.531898,-1.02929 1.897134,0 2.986977,1.11002 1.110025,1.08985 1.110025,2.98698 0,0.54492 -0.08073,1.19076 -0.08073,0.62565 -0.242187,1.49348 l -1.33203,6.19596 q -0.242188,1.08985 -0.343099,1.81641 -0.100912,0.72656 -0.100912,1.21093 0,0.92839 0.464193,1.51367 0.484374,0.58529 1.231119,0.58529 0.585286,0 1.291665,-0.10091 0.70638,-0.12109 1.473306,-0.3431 v 1.53385 q -1.998045,0.72657 -3.55208,1.08985 -1.533853,0.3431 -2.684243,0.3431 -1.654947,0 -2.502602,-0.72657 -0.847656,-0.74674 -0.847656,-2.19986 0,-0.38347 0.06055,-0.88803 0.08073,-0.52473 0.26237,-1.31184 l 1.574217,-7.30599 q 0.161458,-0.74674 0.242188,-1.33203 0.08073,-0.58528 0.08073,-1.06966 0,-1.08984 -0.544922,-1.69531 -0.524739,-0.62565 -1.51367,-0.62565 -0.988932,0 -2.30078,0.70638 -1.291666,0.6862 -2.583331,1.89713 l -2.442056,14.30924 H 68.510391 L 70.8919,534.99024 q 0.18164,-0.96875 0.242187,-1.3724 0.06055,-0.42383 0.06055,-0.70638 0,-1.15039 -0.544922,-1.77604 -0.544921,-0.62565 -1.533853,-0.62565 -0.88802,0 -2.199868,0.6862 -1.311848,0.66601 -2.805336,1.87695 l -2.522785,14.3496 H 56.56248 l 3.208982,-16.73111 -3.289711,-0.50456 v -1.45312 z"
         style="fill:#0204b4"
         id="path15406" /><path
         d="m 97.875598,544.65755 q 0.666015,0.5651 1.412759,0.86783 0.766923,0.28256 1.574213,0.28256 2.54297,0 4.54102,-3.20899 2.01822,-3.20898 2.01822,-7.56835 0,-2.38151 -0.86783,-3.59244 -0.86784,-1.21094 -2.60352,-1.21094 -0.70638,0 -1.65494,0.36328 -0.92839,0.3431 -2.13932,1.08984 z m -0.666015,-24.09764 -3.37044,-0.54492 v -1.45313 l 7.063797,-1.55403 h 1.8164 q -0.0807,0.40364 -0.36328,2.07877 -0.28255,1.67513 -0.50455,2.90625 l -1.45313,7.91145 q 1.89714,-1.4733 3.55208,-2.17968 1.65495,-0.72657 3.10807,-0.72657 2.46224,0 4.01628,2.03841 1.55403,2.03841 1.55403,5.32813 0,2.8457 -1.08984,5.50976 -1.08984,2.66406 -3.06771,4.6621 -1.61458,1.5944 -3.81445,2.42188 -2.17968,0.82747 -4.823561,0.82747 -1.957681,0 -3.713539,-0.44401 -1.755858,-0.44401 -3.37044,-1.3724 z"
         style="fill:#0204b4"
         id="path15408" /><path
         d="m 120.80267,536.30208 q 3.20898,-0.14127 5.32812,-1.5944 2.13932,-1.45312 2.13932,-3.4108 0,-0.96875 -0.5651,-1.53385 -0.54492,-0.56511 -1.47331,-0.56511 -1.69531,0 -3.16862,1.89714 -1.45312,1.87695 -2.26041,5.20702 z m -0.3431,1.73568 q 0,0.0404 -0.0202,0.14128 -0.0606,0.74674 -0.0606,1.11002 0,2.58333 1.15039,3.99609 1.15039,1.41276 3.26953,1.41276 1.37239,0 3.00716,-0.72656 1.65495,-0.74675 3.47135,-2.17969 v 2.52279 q -2.22005,1.71549 -4.41992,2.60351 -2.17968,0.86784 -4.13737,0.86784 -3.43098,0 -5.36848,-2.07878 -1.9375,-2.07877 -1.9375,-5.77213 0,-2.94661 1.19076,-5.52994 1.21093,-2.58333 3.47135,-4.50065 1.57421,-1.33203 3.47135,-2.05859 1.89713,-0.72656 3.77408,-0.72656 2.38151,0 3.75391,1.21093 1.37239,1.21094 1.37239,3.3099 0,3.02734 -2.8457,4.74283 -2.82552,1.69531 -7.87109,1.69531 -0.20182,0 -0.62565,-0.0202 -0.42383,-0.0202 -0.64583,-0.0202 z"
         style="fill:#0204b4"
         id="path15410" /><path
         d="m 147.54418,528.85482 q -0.3431,-0.0404 -0.52474,-0.0605 -0.16146,-0.0202 -0.28255,-0.0202 -2.66406,0 -4.76302,3.22917 -2.09896,3.22916 -2.09896,7.60872 0,2.26041 0.82748,3.55208 0.84765,1.29166 2.32096,1.29166 0.96875,0 2.11914,-0.58528 1.15039,-0.60547 2.38151,-1.73568 l 1.77604,-10.79752 z m 7.2858,-11.84699 h 1.73568 l -3.83464,23.02797 q -0.18164,1.15039 -0.28255,1.89714 -0.0807,0.72656 -0.0807,1.11002 0,0.92839 0.48438,1.51367 0.50455,0.58529 1.2513,0.58529 0.58528,0 1.29166,-0.10091 0.70638,-0.12109 1.45313,-0.3431 l 0.0202,1.53385 q -2.17969,0.78711 -3.69336,1.15039 -1.51367,0.36328 -2.60351,0.36328 -1.69531,0 -2.52278,-0.82747 -0.8073,-0.82747 -0.8073,-2.56315 v -0.12109 q -1.75585,1.75586 -3.43098,2.64388 -1.67513,0.86783 -3.26953,0.86783 -2.6237,0 -4.25846,-2.07877 -1.61458,-2.09896 -1.61458,-5.55013 0,-2.13932 0.5651,-4.15755 0.58529,-2.01822 1.71549,-3.7539 1.63477,-2.54297 4.13737,-3.91536 2.5026,-1.37239 5.48958,-1.37239 0.76693,0 1.61458,0.18164 0.84766,0.18164 1.77604,0.52473 l 1.15039,-7.06379 -3.47135,-0.54492 v -1.45313 z"
         style="fill:#0204b4"
         id="path15412" /><path
         d="m 171.48036,528.85482 q -0.3431,-0.0404 -0.52474,-0.0605 -0.16146,-0.0202 -0.28255,-0.0202 -2.66406,0 -4.76302,3.22917 -2.09896,3.22916 -2.09896,7.60872 0,2.26041 0.82748,3.55208 0.84765,1.29166 2.32096,1.29166 0.96875,0 2.11914,-0.58528 1.15039,-0.60547 2.38151,-1.73568 l 1.77604,-10.79752 z m 7.2858,-11.84699 h 1.73568 l -3.83464,23.02797 q -0.18164,1.15039 -0.28255,1.89714 -0.0807,0.72656 -0.0807,1.11002 0,0.92839 0.48438,1.51367 0.50455,0.58529 1.2513,0.58529 0.58528,0 1.29166,-0.10091 0.70638,-0.12109 1.45313,-0.3431 l 0.0202,1.53385 q -2.17969,0.78711 -3.69336,1.15039 -1.51367,0.36328 -2.60351,0.36328 -1.69531,0 -2.52278,-0.82747 -0.8073,-0.82747 -0.8073,-2.56315 v -0.12109 q -1.75585,1.75586 -3.43098,2.64388 -1.67513,0.86783 -3.26953,0.86783 -2.6237,0 -4.25846,-2.07877 -1.61458,-2.09896 -1.61458,-5.55013 0,-2.13932 0.5651,-4.15755 0.58529,-2.01822 1.71549,-3.7539 1.63477,-2.54297 4.13737,-3.91536 2.5026,-1.37239 5.48958,-1.37239 0.76693,0 1.61458,0.18164 0.84766,0.18164 1.77604,0.52473 l 1.15039,-7.06379 -3.47135,-0.54492 v -1.45313 z"
         style="fill:#0204b4"
         id="path15414" /><path
         d="m 195.31563,529.03646 q -0.0807,0 -0.26237,-0.0202 -0.16146,-0.0202 -0.28255,-0.0202 -2.9668,0 -5.02539,3.04752 -2.03841,3.02734 -2.03841,7.60872 0,2.32096 0.78711,3.5319 0.80729,1.21094 2.36132,1.21094 0.90821,0 1.91732,-0.4642 1.0293,-0.46419 2.26042,-1.4733 l 1.93749,-10.9388 z m 5.08593,-1.99804 h 2.44206 q -0.26237,0.78711 -0.64584,2.48242 -0.38346,1.69531 -0.76692,3.81445 l -1.2513,6.70051 q -0.16146,0.96875 -0.26237,1.73568 -0.10091,0.74674 -0.10091,1.15039 0,0.98893 0.48437,1.61458 0.50456,0.60547 1.2513,0.60547 0.60547,0 1.27148,-0.10091 0.6862,-0.12109 1.45313,-0.3431 v 1.53385 q -2.19987,0.78711 -3.69336,1.15039 -1.4733,0.36328 -2.54296,0.36328 -1.51368,0 -2.32097,-0.7871 -0.78711,-0.8073 -0.78711,-2.30078 v -0.20183 q -1.71549,1.63477 -3.39062,2.46224 -1.65494,0.82747 -3.16862,0.82747 -2.80533,0 -4.37955,-1.97786 -1.57422,-1.99804 -1.57422,-5.52994 0,-2.24024 0.60547,-4.27865 0.62565,-2.05859 1.87695,-3.95572 1.53386,-2.34115 3.95573,-3.65299 2.44205,-1.31185 5.20703,-1.31185 1.15039,0 2.32096,0.26237 1.19075,0.24219 2.48242,0.72656 z"
         style="fill:#0204b4"
         id="path15416" /><path
         d="m 211.54219,544.65755 q 0.66601,0.5651 1.41276,0.86783 0.76692,0.28256 1.57421,0.28256 2.54297,0 4.54101,-3.20899 2.01823,-3.20898 2.01823,-7.56835 0,-2.38151 -0.86784,-3.59244 -0.86783,-1.21094 -2.60351,-1.21094 -0.70638,0 -1.65495,0.36328 -0.92838,0.3431 -2.13932,1.08984 z m -0.66602,-24.09764 -3.37044,-0.54492 v -1.45313 l 7.0638,-1.55403 h 1.8164 q -0.0807,0.40364 -0.36328,2.07877 -0.28255,1.67513 -0.50456,2.90625 l -1.45312,7.91145 q 1.89713,-1.4733 3.55208,-2.17968 1.65495,-0.72657 3.10807,-0.72657 2.46224,0 4.01627,2.03841 1.55404,2.03841 1.55404,5.32813 0,2.8457 -1.08984,5.50976 -1.08985,2.66406 -3.06771,4.6621 -1.61458,1.5944 -3.81445,2.42188 -2.17969,0.82747 -4.82356,0.82747 -1.95768,0 -3.71354,-0.44401 -1.75586,-0.44401 -3.37044,-1.3724 z"
         style="fill:#0204b4"
         id="path15418" /><path
         d="m 234.08579,520.55991 -3.39063,-0.54492 v -1.45313 l 7.0638,-1.55403 h 1.8164 l -4.29882,23.00779 v 0.0404 q -0.44401,2.1595 -0.44401,2.98697 0,0.92839 0.46419,1.51367 0.48438,0.58529 1.23112,0.58529 0.70638,0 1.53385,-0.14128 0.84766,-0.16145 1.79623,-0.46419 v 1.61458 q -2.34115,0.84766 -3.93555,1.25131 -1.57421,0.38346 -2.54296,0.38346 -1.77604,0 -2.72461,-0.78711 -0.94857,-0.78711 -0.94857,-2.26041 0,-0.52474 0.28255,-2.13933 v -0.0605 z"
         style="fill:#0204b4"
         id="path15420" /><path
         d="m 247.16389,536.30208 q 3.20898,-0.14127 5.32812,-1.5944 2.13932,-1.45312 2.13932,-3.4108 0,-0.96875 -0.5651,-1.53385 -0.54492,-0.56511 -1.47331,-0.56511 -1.69531,0 -3.16862,1.89714 -1.45312,1.87695 -2.26041,5.20702 z m -0.3431,1.73568 q 0,0.0404 -0.0202,0.14128 -0.0606,0.74674 -0.0606,1.11002 0,2.58333 1.15039,3.99609 1.15039,1.41276 3.26953,1.41276 1.3724,0 3.00716,-0.72656 1.65495,-0.74675 3.47135,-2.17969 v 2.52279 q -2.22005,1.71549 -4.41992,2.60351 -2.17968,0.86784 -4.13736,0.86784 -3.43099,0 -5.36849,-2.07878 -1.9375,-2.07877 -1.9375,-5.77213 0,-2.94661 1.19076,-5.52994 1.21093,-2.58333 3.47135,-4.50065 1.57422,-1.33203 3.47135,-2.05859 1.89713,-0.72656 3.77409,-0.72656 2.3815,0 3.7539,1.21093 1.37239,1.21094 1.37239,3.3099 0,3.02734 -2.8457,4.74283 -2.82552,1.69531 -7.87109,1.69531 -0.20182,0 -0.62565,-0.0202 -0.42382,-0.0202 -0.64583,-0.0202 z"
         style="fill:#0204b4"
         id="path15422" /><path
         d="m 275.6209,519.69207 h 11.52408 v 1.97786 l -2.60351,0.20183 -0.70638,0.54492 -4.19791,22.60415 h 7.46744 l 0.74674,-0.56511 1.61458,-5.16666 h 2.9668 l -1.55404,8.13346 h -19.63735 v -1.97787 l 2.56315,-0.26236 0.66601,-0.52474 4.15755,-22.24087 -0.40364,-0.58529 -2.60352,-0.16146 z"
         style="fill:#0204b4"
         id="path15424" /><path
         d="m 302.40278,527.03842 h 1.81641 l -2.64388,13.96613 q -0.12109,0.64584 -0.18164,1.04948 -0.0404,0.40365 -0.0404,0.66602 0,1.11002 0.52474,1.69531 0.52473,0.5651 1.51367,0.5651 0.44401,0 1.17057,-0.14127 0.72656,-0.14128 1.67513,-0.44401 v 1.69531 q -2.09896,0.84765 -3.81445,1.23112 -1.7155,0.38346 -3.24935,0.38346 -1.51367,0 -2.30078,-0.80729 -0.76693,-0.82747 -0.76693,-2.40169 0,-0.40365 0.0807,-0.98893 0.0807,-0.60547 0.30274,-1.79623 l 2.22005,-11.12043 -3.39062,-0.52474 v -1.45312 z m 0.82748,-9.58658 q 1.27148,0 2.01823,0.72656 0.74674,0.70638 0.74674,1.91732 0,1.31184 -0.9082,2.22005 -0.9082,0.88802 -2.24023,0.88802 -1.25131,0 -2.03841,-0.72657 -0.76693,-0.72656 -0.76693,-1.87695 0,-1.35221 0.9082,-2.24023 0.9082,-0.9082 2.2806,-0.9082 z"
         style="fill:#0204b4"
         id="path15426" /><path
         d="m 315.62219,527.03842 h 1.61458 l -0.82748,4.097 q 2.6237,-2.13932 4.60156,-3.10807 1.97787,-0.98893 3.653,-0.98893 1.65494,0 2.70442,1.13021 1.06966,1.11002 1.06966,2.92643 0,0.5651 -0.12109,1.39257 -0.1211,0.80729 -0.3431,1.87696 l -1.23112,5.65103 q -0.24219,1.19076 -0.36328,1.91732 -0.10091,0.70638 -0.10091,1.15039 0,0.88802 0.48437,1.4733 0.50456,0.58529 1.2513,0.58529 0.60547,0 1.27149,-0.10091 0.68619,-0.12109 1.45312,-0.3431 v 1.57422 q -1.85677,0.6862 -3.45117,1.04948 -1.57422,0.3431 -2.78515,0.3431 -1.61458,0 -2.46224,-0.72657 -0.84766,-0.74674 -0.84766,-2.1595 0,-0.38346 0.0605,-0.84766 0.0605,-0.48437 0.24219,-1.39257 l 1.4733,-6.84179 q 0.18164,-0.90821 0.28256,-1.5944 0.10091,-0.6862 0.10091,-1.15039 0,-1.13021 -0.54492,-1.75586 -0.54493,-0.64584 -1.49349,-0.64584 -0.94857,0 -2.2806,0.70638 -1.31185,0.70638 -2.88606,2.03841 l -2.44206,14.1276 h -5.24739 l 3.30989,-16.77147 -3.43099,-0.4642 v -1.45312 z"
         style="fill:#0204b4"
         id="path15428" /><path
         d="m 340.38584,527.30079 h 1.55403 l -2.38151,12.35155 q -0.18164,0.92839 -0.26237,1.51367 -0.0807,0.58529 -0.0807,0.92839 0,1.08984 0.5651,1.65494 0.5651,0.56511 1.63476,0.56511 0.94857,0 2.22005,-0.50456 1.27149,-0.50456 2.74479,-1.47331 l 2.80534,-14.55142 4.92448,-0.48437 -2.44206,12.71483 -0.0202,0.0404 q -0.44401,2.1595 -0.44401,2.98697 0,0.92839 0.48437,1.51367 0.50456,0.58529 1.2513,0.58529 0.60547,0 1.29167,-0.10091 0.70638,-0.12109 1.47331,-0.3431 v 1.53385 q -2.56315,0.86784 -4.05664,1.23112 -1.47331,0.36328 -2.42188,0.36328 -1.51367,0 -2.32096,-0.82747 -0.78711,-0.82747 -0.78711,-2.38151 v -0.38346 q -2.32096,1.75586 -4.27864,2.68424 -1.9375,0.9082 -3.33007,0.9082 -1.99805,0 -3.12826,-1.11002 -1.11002,-1.13021 -1.11002,-3.12825 0,-0.48438 0.0605,-1.0293 0.0606,-0.5651 0.18165,-1.21094 l 2.01822,-10.75715 -3.30989,-0.40365 v -1.37239 z"
         style="fill:#0204b4"
         id="path15430" /><path
         d="m 363.5349,526.99805 h 0.28255 q 1.41276,0 2.26041,1.31185 0.86784,1.31185 2.07878,6.09505 1.9375,-3.63281 3.69335,-5.36849 1.77604,-1.73567 3.51172,-1.73567 1.13021,0 1.85677,0.74674 0.74674,0.74675 0.74674,1.89714 0,1.11002 -0.70638,1.9375 -0.70638,0.82747 -1.95768,1.19075 l -1.5944,-2.17969 q -1.21093,0.52474 -2.3815,1.9375 -1.15039,1.41276 -2.22006,3.63281 0.1211,0.40365 0.3431,1.19076 2.15951,7.52799 4.74284,7.52799 0.58528,0 1.13021,-0.0605 0.5651,-0.0807 1.15039,-0.20182 v 1.5944 q -1.95768,0.60546 -3.26953,0.88802 -1.29167,0.26237 -2.19987,0.26237 -2.1595,0 -3.39062,-1.5944 -1.21094,-1.61459 -2.17969,-6.01432 -2.11914,3.89518 -3.83463,5.63085 -1.7155,1.73568 -3.39062,1.73568 -1.21094,0 -2.07878,-0.76693 -0.86784,-0.78711 -0.86784,-1.87695 0,-1.0293 0.72657,-1.83659 0.72656,-0.80729 1.91731,-1.08984 l 1.77604,2.17969 q 1.33203,-0.90821 2.56315,-2.46224 1.23112,-1.55404 2.2806,-3.65299 -1.00912,-3.1888 -1.69531,-4.9043 -0.66602,-1.73567 -1.19076,-2.5026 l -3.77408,-0.28255 v -1.41276 z"
         style="fill:#0204b4"
         id="path15432" /><path
         d="m 393.3643,519.69207 h 11.52408 v 1.97786 l -2.72461,0.16146 -0.54492,0.58529 -2.0586,10.83788 h 1.25131 l 10.37369,-10.67642 -0.26237,-0.66602 -2.56315,-0.24219 v -1.97786 h 10.33332 v 1.97786 l -3.30989,0.38347 -9.66731,9.7884 5.28776,10.57551 q 0.88802,1.77604 1.8164,2.36133 0.92838,0.58529 2.66406,0.58529 h 0.86784 l -0.0202,2.01822 q -0.80729,0.0605 -2.13933,0.16146 -2.13932,0.16146 -2.76497,0.16146 -2.11914,0 -3.30989,-0.82747 -1.19075,-0.82748 -2.60351,-3.71354 l -3.75391,-7.85091 h -2.60351 l -1.69531,9.26367 0.44401,0.64583 2.56315,0.18164 v 2.01823 h -11.52408 v -2.01823 l 2.64388,-0.222 0.62565,-0.60547 4.15755,-22.16014 -0.40365,-0.58529 -2.60351,-0.16146 z"
         style="fill:#0204b4"
         id="path15434" /><path
         d="m 422.44696,536.30208 q 3.20898,-0.14127 5.32812,-1.5944 2.13932,-1.45312 2.13932,-3.4108 0,-0.96875 -0.56511,-1.53385 -0.54492,-0.56511 -1.4733,-0.56511 -1.69531,0 -3.16862,1.89714 -1.45312,1.87695 -2.26041,5.20702 z m -0.3431,1.73568 q 0,0.0404 -0.0202,0.14128 -0.0605,0.74674 -0.0605,1.11002 0,2.58333 1.15039,3.99609 1.15039,1.41276 3.26953,1.41276 1.37239,0 3.00716,-0.72656 1.65494,-0.74675 3.47135,-2.17969 v 2.52279 q -2.22005,1.71549 -4.41992,2.60351 -2.17969,0.86784 -4.13737,0.86784 -3.43099,0 -5.36848,-2.07878 -1.9375,-2.07877 -1.9375,-5.77213 0,-2.94661 1.19075,-5.52994 1.21094,-2.58333 3.47135,-4.50065 1.57422,-1.33203 3.47136,-2.05859 1.89713,-0.72656 3.77408,-0.72656 2.38151,0 3.7539,1.21093 1.3724,1.21094 1.3724,3.3099 0,3.02734 -2.8457,4.74283 -2.82552,1.69531 -7.87109,1.69531 -0.20182,0 -0.62565,-0.0202 -0.42383,-0.0202 -0.64583,-0.0202 z"
         style="fill:#0204b4"
         id="path15436" /><path
         d="m 443.63834,527.03842 h 1.43294 l -1.15039,5.55012 q 1.9375,-2.70442 3.75391,-4.11718 1.8164,-1.43294 3.30989,-1.43294 1.35221,0 2.19987,0.86784 0.86783,0.84765 0.86783,2.19986 0,1.53386 -1.1302,2.52279 -1.11003,0.98893 -2.88607,0.98893 h -0.0807 l -1.11002,-3.14843 q -2.42188,1.00911 -3.73372,2.74479 -1.29167,1.73567 -1.77604,4.62174 l -1.61459,9.58658 h -5.08593 l 3.30989,-16.77147 -3.43098,-0.50456 v -1.45312 z"
         style="fill:#0204b4"
         id="path15438" /><path
         d="m 462.36752,527.03842 h 1.61458 l -0.82747,4.097 q 2.62369,-2.13932 4.60155,-3.10807 1.97787,-0.98893 3.653,-0.98893 1.65494,0 2.70442,1.13021 1.06966,1.11002 1.06966,2.92643 0,0.5651 -0.12109,1.39257 -0.1211,0.80729 -0.3431,1.87696 l -1.23112,5.65103 q -0.24219,1.19076 -0.36328,1.91732 -0.10091,0.70638 -0.10091,1.15039 0,0.88802 0.48437,1.4733 0.50456,0.58529 1.2513,0.58529 0.60547,0 1.27149,-0.10091 0.6862,-0.12109 1.45312,-0.3431 v 1.57422 q -1.85677,0.6862 -3.45117,1.04948 -1.57422,0.3431 -2.78515,0.3431 -1.61458,0 -2.46224,-0.72657 -0.84766,-0.74674 -0.84766,-2.1595 0,-0.38346 0.0606,-0.84766 0.0605,-0.48437 0.24219,-1.39257 l 1.47331,-6.84179 q 0.18164,-0.90821 0.28255,-1.5944 0.10091,-0.6862 0.10091,-1.15039 0,-1.13021 -0.54492,-1.75586 -0.54492,-0.64584 -1.49349,-0.64584 -0.94857,0 -2.2806,0.70638 -1.31185,0.70638 -2.88606,2.03841 l -2.44206,14.1276 h -5.24739 l 3.30989,-16.77147 -3.43098,-0.4642 v -1.45312 z"
         style="fill:#0204b4"
         id="path15440" /><path
         d="m 484.99185,536.30208 q 3.20898,-0.14127 5.32812,-1.5944 2.13932,-1.45312 2.13932,-3.4108 0,-0.96875 -0.5651,-1.53385 -0.54493,-0.56511 -1.47331,-0.56511 -1.69531,0 -3.16862,1.89714 -1.45312,1.87695 -2.26041,5.20702 z m -0.3431,1.73568 q 0,0.0404 -0.0202,0.14128 -0.0606,0.74674 -0.0606,1.11002 0,2.58333 1.15039,3.99609 1.15039,1.41276 3.26953,1.41276 1.37239,0 3.00716,-0.72656 1.65494,-0.74675 3.47135,-2.17969 v 2.52279 q -2.22005,1.71549 -4.41992,2.60351 -2.17969,0.86784 -4.13737,0.86784 -3.43098,0 -5.36848,-2.07878 -1.9375,-2.07877 -1.9375,-5.77213 0,-2.94661 1.19075,-5.52994 1.21094,-2.58333 3.47136,-4.50065 1.57421,-1.33203 3.47135,-2.05859 1.89713,-0.72656 3.77408,-0.72656 2.38151,0 3.75391,1.21093 1.37239,1.21094 1.37239,3.3099 0,3.02734 -2.8457,4.74283 -2.82552,1.69531 -7.87109,1.69531 -0.20182,0 -0.62565,-0.0202 -0.42383,-0.0202 -0.64583,-0.0202 z"
         style="fill:#0204b4"
         id="path15442" /><path
         d="m 503.78154,520.55991 -3.39062,-0.54492 v -1.45313 l 7.06379,-1.55403 h 1.81641 l -4.29883,23.00779 v 0.0404 q -0.44401,2.1595 -0.44401,2.98697 0,0.92839 0.4642,1.51367 0.48437,0.58529 1.23112,0.58529 0.70638,0 1.53385,-0.14128 0.84765,-0.16145 1.79622,-0.46419 v 1.61458 q -2.34114,0.84766 -3.93554,1.25131 -1.57422,0.38346 -2.54297,0.38346 -1.77604,0 -2.72461,-0.78711 -0.94856,-0.78711 -0.94856,-2.26041 0,-0.52474 0.28255,-2.13933 v -0.0605 z"
         style="fill:#0204b4"
         id="path15444" /><path
         d="m 523.74181,545.56575 1.11003,-6.70052 h 2.74479 l -0.0404,4.92448 0.28255,0.40364 q 0.94857,0.42383 1.87695,0.62565 0.94857,0.20183 1.87696,0.20183 2.58333,0 4.19791,-1.39258 1.63476,-1.39258 1.63476,-3.57226 0,-0.58529 -0.28255,-1.2513 -0.28255,-0.6862 -0.82747,-1.35222 -0.52474,-0.66601 -3.12825,-2.09895 -1.31185,-0.72657 -2.03841,-1.15039 -2.70443,-1.61459 -3.69336,-3.00716 -0.98893,-1.41276 -0.98893,-3.41081 0,-3.79426 2.96679,-6.19596 2.9668,-2.40169 7.70963,-2.40169 1.55404,0 3.20898,0.28256 1.67513,0.28255 3.43099,0.84765 l -1.06966,6.98307 h -2.48242 l 0.0807,-4.5612 -0.32292,-0.40364 q -0.64583,-0.36328 -1.37239,-0.52474 -0.70638,-0.18164 -1.51367,-0.18164 -2.44206,0 -4.07682,1.33203 -1.63477,1.31185 -1.63477,3.24935 0,2.22005 4.76302,4.92447 l 0.44401,0.24219 q 3.89518,2.26041 4.94466,3.67317 1.04948,1.41276 1.04948,3.49154 0,3.89518 -3.14844,6.53905 -3.12825,2.6237 -7.89127,2.6237 -2.09896,0 -4.05664,-0.52474 -1.93749,-0.54492 -3.7539,-1.61458 z"
         style="fill:#0204b4"
         id="path15446" /><path
         d="m 553.97489,527.30079 h 1.55403 l -2.38151,12.35155 q -0.18164,0.92839 -0.26237,1.51367 -0.0807,0.58529 -0.0807,0.92839 0,1.08984 0.5651,1.65494 0.5651,0.56511 1.63476,0.56511 0.94857,0 2.22005,-0.50456 1.27149,-0.50456 2.74479,-1.47331 l 2.80534,-14.55142 4.92448,-0.48437 -2.44206,12.71483 -0.0202,0.0404 q -0.44401,2.1595 -0.44401,2.98697 0,0.92839 0.48437,1.51367 0.50456,0.58529 1.2513,0.58529 0.60547,0 1.29167,-0.10091 0.70638,-0.12109 1.47331,-0.3431 v 1.53385 q -2.56315,0.86784 -4.05664,1.23112 -1.47331,0.36328 -2.42188,0.36328 -1.51367,0 -2.32096,-0.82747 -0.78711,-0.82747 -0.78711,-2.38151 v -0.38346 q -2.32096,1.75586 -4.27864,2.68424 -1.9375,0.9082 -3.33007,0.9082 -1.99805,0 -3.12826,-1.11002 -1.11002,-1.13021 -1.11002,-3.12825 0,-0.48438 0.0605,-1.0293 0.0605,-0.5651 0.18165,-1.21094 l 2.01822,-10.75715 -3.30989,-0.40365 v -1.37239 z"
         style="fill:#0204b4"
         id="path15448" /><path
         d="m 576.65972,544.65755 q 0.66602,0.5651 1.41276,0.86783 0.76693,0.28256 1.57422,0.28256 2.54297,0 4.54101,-3.20899 2.01823,-3.20898 2.01823,-7.56835 0,-2.38151 -0.86784,-3.59244 -0.86783,-1.21094 -2.60351,-1.21094 -0.70638,0 -1.65495,0.36328 -0.92838,0.3431 -2.13932,1.08984 z m -0.66601,-24.09764 -3.37044,-0.54492 v -1.45313 l 7.0638,-1.55403 h 1.8164 q -0.0807,0.40364 -0.36328,2.07877 -0.28255,1.67513 -0.50456,2.90625 l -1.45312,7.91145 q 1.89713,-1.4733 3.55208,-2.17968 1.65495,-0.72657 3.10807,-0.72657 2.46224,0 4.01627,2.03841 1.55404,2.03841 1.55404,5.32813 0,2.8457 -1.08984,5.50976 -1.08985,2.66406 -3.06771,4.6621 -1.61458,1.5944 -3.81445,2.42188 -2.17969,0.82747 -4.82357,0.82747 -1.95768,0 -3.71353,-0.44401 -1.75586,-0.44401 -3.37044,-1.3724 z"
         style="fill:#0204b4"
         id="path15450" /><path
         d="m 597.70984,541.89257 -0.74675,3.00716 q 0.74675,0.52474 1.43294,0.78711 0.6862,0.24219 1.33203,0.24219 1.35222,0 2.22005,-0.84766 0.88802,-0.86783 0.88802,-2.1595 0,-1.91732 -2.92643,-3.875 -0.32291,-0.222 -0.50455,-0.3431 -2.38151,-1.65494 -3.1888,-2.70442 -0.78711,-1.06966 -0.78711,-2.34114 0,-2.80534 2.34114,-4.72266 2.36133,-1.9375 5.85286,-1.9375 2.17969,0 3.45117,0.84766 1.29167,0.84766 1.29167,2.26041 0,1.11003 -0.80729,1.81641 -0.78711,0.6862 -2.11914,0.74674 l -1.9375,-3.71353 q -0.36328,-0.0606 -0.54492,-0.0807 -0.16146,-0.0202 -0.28255,-0.0202 -1.29167,0 -2.15951,0.6862 -0.86784,0.6862 -0.86784,1.67513 0,0.74674 0.62565,1.51367 0.64584,0.74674 2.68425,2.22005 2.8457,2.03841 3.61262,3.24935 0.76693,1.19075 0.76693,2.78515 0,2.8457 -2.34114,4.82357 -2.34115,1.97786 -5.79232,1.97786 -2.76497,0 -4.54101,-1.21094 -1.75586,-1.21093 -1.75586,-3.08789 0,-1.1302 0.6862,-1.83658 0.70638,-0.72657 1.79622,-0.72657 0.66602,0 1.23112,0.24219 0.58529,0.24219 1.08985,0.72656 z"
         style="fill:#0204b4"
         id="path15452" /><path
         d="m 616.23718,536.30208 q 3.20898,-0.14127 5.32812,-1.5944 2.13932,-1.45312 2.13932,-3.4108 0,-0.96875 -0.5651,-1.53385 -0.54493,-0.56511 -1.47331,-0.56511 -1.69531,0 -3.16862,1.89714 -1.45312,1.87695 -2.26041,5.20702 z m -0.3431,1.73568 q 0,0.0404 -0.0202,0.14128 -0.0606,0.74674 -0.0606,1.11002 0,2.58333 1.15039,3.99609 1.15039,1.41276 3.26953,1.41276 1.37239,0 3.00716,-0.72656 1.65494,-0.74675 3.47135,-2.17969 v 2.52279 q -2.22005,1.71549 -4.41992,2.60351 -2.17969,0.86784 -4.13737,0.86784 -3.43098,0 -5.36848,-2.07878 -1.9375,-2.07877 -1.9375,-5.77213 0,-2.94661 1.19075,-5.52994 1.21094,-2.58333 3.47136,-4.50065 1.57421,-1.33203 3.47135,-2.05859 1.89713,-0.72656 3.77408,-0.72656 2.38151,0 3.75391,1.21093 1.37239,1.21094 1.37239,3.3099 0,3.02734 -2.8457,4.74283 -2.82552,1.69531 -7.87109,1.69531 -0.20182,0 -0.62565,-0.0202 -0.42383,-0.0202 -0.64583,-0.0202 z"
         style="fill:#0204b4"
         id="path15454" /><path
         d="m 637.12583,522.57814 h 2.68424 l -0.94857,5.28775 h 5.67122 v 2.40169 h -6.11523 l -1.87695,10.13151 q -0.12109,0.62565 -0.18164,1.1302 -0.0605,0.50456 -0.0605,0.92839 0,1.29166 0.60547,1.95768 0.62565,0.64583 1.83659,0.64583 0.6862,0 1.57422,-0.18164 0.9082,-0.18164 2.01823,-0.5651 v 1.65494 q -2.60352,0.92839 -4.33919,1.35222 -1.73568,0.42382 -2.80534,0.42382 -1.95768,0 -2.9668,-0.98893 -1.00911,-1.00911 -1.00911,-2.92643 0,-0.62565 0.0606,-1.27148 0.0807,-0.66602 0.24219,-1.39258 l 2.05859,-10.89843 -2.72461,0.1211 v -1.49349 l 3.55208,-1.77604 z"
         style="fill:#0204b4"
         id="path15456" /></g></g></svg>
